<?xml version="1.0" encoding="utf-8"?>
<!-- Generator: Adobe Illustrator 27.5.0, SVG Export Plug-In . SVG Version: 6.00 Build 0)  -->
<svg version="1.1" xmlns="http://www.w3.org/2000/svg" xmlns:xlink="http://www.w3.org/1999/xlink" x="0px" y="0px"
	 viewBox="0 0 500 500" style="enable-background:new 0 0 500 500;" xml:space="preserve">
<g id="BACKGROUND">
	<rect style="fill:#FFFDFB;" width="500" height="500"/>
</g>
<g id="OBJECTS">
	<g>
		<g>
			<rect x="278.267" y="190.154" style="fill:#1D365C;" width="56.789" height="144.093"/>
			<rect x="284.874" y="178.16" style="fill:#1D365C;" width="43.995" height="14.46"/>
			<rect x="278.443" y="174.28" style="fill:#1D365C;" width="57.194" height="7.835"/>
			<g>
				<rect x="288.629" y="197.784" style="fill:#FFFFFF;" width="3.917" height="116.36"/>
				<rect x="298.814" y="197.784" style="fill:#FFFFFF;" width="3.917" height="116.36"/>
				<rect x="310.566" y="197.784" style="fill:#FFFFFF;" width="3.134" height="116.36"/>
				<rect x="320.751" y="197.784" style="fill:#FFFFFF;" width="3.134" height="116.36"/>
			</g>
		</g>
		<g>
			<polygon style="fill:#1D365C;" points="278.597,333.963 221.403,333.963 221.403,188.299 278.597,165.99 			"/>
			<g>
				<path style="fill:#FFFFFF;" d="M237.227,213.71v-16.794c0-1.724-1.513-3.121-3.38-3.121c-1.867,0-3.381,1.398-3.381,3.121
					v16.794H237.227z"/>
				<path style="fill:#FFFFFF;" d="M253.299,213.71v-16.794c0-1.724-1.513-3.121-3.381-3.121c-1.866,0-3.38,1.398-3.38,3.121v16.794
					H253.299z"/>
				<path style="fill:#FFFFFF;" d="M269.373,213.71v-16.794c0-1.724-1.514-3.121-3.381-3.121c-1.866,0-3.38,1.398-3.38,3.121v16.794
					H269.373z"/>
				<path style="fill:#FFFFFF;" d="M237.227,246.572v-16.794c0-1.724-1.513-3.122-3.38-3.122c-1.867,0-3.381,1.398-3.381,3.122
					v16.794H237.227z"/>
				<path style="fill:#FFFFFF;" d="M253.299,246.572v-16.794c0-1.724-1.513-3.122-3.381-3.122c-1.866,0-3.38,1.398-3.38,3.122
					v16.794H253.299z"/>
				<path style="fill:#FFFFFF;" d="M269.373,246.572v-16.794c0-1.724-1.514-3.122-3.381-3.122c-1.866,0-3.38,1.398-3.38,3.122
					v16.794H269.373z"/>
				<path style="fill:#FFFFFF;" d="M237.227,279.435v-16.793c0-1.725-1.513-3.123-3.38-3.123c-1.867,0-3.381,1.398-3.381,3.123
					v16.793H237.227z"/>
				<path style="fill:#FFFFFF;" d="M253.299,279.435v-16.793c0-1.725-1.513-3.123-3.381-3.123c-1.866,0-3.38,1.398-3.38,3.123
					v16.793H253.299z"/>
				<path style="fill:#FFFFFF;" d="M269.373,279.435v-16.793c0-1.725-1.514-3.123-3.381-3.123c-1.866,0-3.38,1.398-3.38,3.123
					v16.793H269.373z"/>
				<path style="fill:#FFFFFF;" d="M237.227,312.298v-16.794c0-1.725-1.513-3.123-3.38-3.123c-1.867,0-3.381,1.398-3.381,3.123
					v16.794H237.227z"/>
				<path style="fill:#FFFFFF;" d="M253.299,312.298v-16.794c0-1.725-1.513-3.123-3.381-3.123c-1.866,0-3.38,1.398-3.38,3.123
					v16.794H253.299z"/>
				<path style="fill:#FFFFFF;" d="M269.373,312.298v-16.794c0-1.725-1.514-3.123-3.381-3.123c-1.866,0-3.38,1.398-3.38,3.123
					v16.794H269.373z"/>
			</g>
		</g>
		<g>
			<g>
				<path style="fill:#1D365C;" d="M175.166,332.615h2.438v-4.217h15.077l-4.265,4.217h4.436l3.417-3.378v3.378h5.418V118.45h-0.338
					v-2.914h-29.081v2.914h-0.083v211.728C173.239,330.91,174.237,331.723,175.166,332.615z M196.269,324.622l-17.33-17.138h17.33
					V324.622z M196.269,303.758h-16.42l16.42-16.235V303.758z M196.269,282.844h-0.065l-17.381-17.187h17.446V282.844z
					 M196.269,261.931h-16.303l16.303-16.123V261.931z M196.269,241.017h-0.177l-17.379-17.188h17.556V241.017z M196.269,220.104
					h-16.193l16.193-16.016V220.104z M196.269,199.19h-0.286l-17.379-17.188h17.664V199.19z M196.269,178.276h-16.086l16.086-15.91
					V178.276z M196.269,157.363h-0.391l-17.375-17.188h17.766V157.363z M196.269,136.45h-15.984l15.984-15.81V136.45z
					 M177.604,119.262h15.622l-15.622,15.452V119.262z M177.604,143.675l13.837,13.688h-13.837V143.675z M177.604,161.089h15.519
					l-15.519,15.35V161.089z M177.604,185.4l13.943,13.79h-13.943V185.4z M177.604,202.916h15.413l-15.413,15.244V202.916z
					 M177.604,227.121l14.051,13.896h-14.051V227.121z M177.604,244.743h15.305l-15.305,15.136V244.743z M177.604,268.839
					l14.163,14.005h-14.163V268.839z M177.604,286.57h15.191l-15.191,15.021V286.57z M177.604,310.55l14.278,14.122h-14.278V310.55z
					"/>
			</g>
			<g>
				<g>
					<path style="fill:#1D365C;" d="M176.681,117.182c1.829,3.29,3.659,6.578,5.488,9.867c0.423,0.762-0.732,1.47-1.159,0.704
						c-1.829-3.288-3.659-6.579-5.487-9.867C175.099,117.124,176.256,116.416,176.681,117.182L176.681,117.182z"/>
				</g>
				<g>
					<path style="fill:#1D365C;" d="M329.353,104.642c-1.504,3.451-3.008,6.9-4.512,10.35c-0.349,0.798-1.612,0.309-1.263-0.495
						c1.505-3.45,3.009-6.9,4.514-10.349C328.439,103.349,329.705,103.839,329.353,104.642L329.353,104.642z"/>
				</g>
				<g>
					<path style="fill:#1D365C;" d="M349.516,132.218c-1.506,3.45-3.009,6.9-4.513,10.35c-0.348,0.798-1.614,0.309-1.261-0.493
						c1.502-3.45,3.008-6.901,4.51-10.351C348.601,130.925,349.864,131.414,349.516,132.218L349.516,132.218z"/>
				</g>
				<g>
					<g>
						<path style="fill:#1D365C;" d="M237.526,132.284l15.554-1.598l0.177,0.164l0.133-0.196l20.716-2.13l0.271,0.246l0.199-0.294
							l20.641-2.122l0.011,0.011l0.008-0.013l24.359-2.504l6.629-14.715l-24.316,2.189l-0.115-0.114l-0.076,0.132l-18.921,1.703
							l-0.001,0l0,0l-20.964,1.888l-0.055-0.049l-0.039,0.057l-25.8,2.323L237.526,132.284z M260.123,117.353l-7.183,10.726
							l-9.829-9.195L260.123,117.353z M281.171,115.457l-7.126,10.573l-9.941-9.036L281.171,115.457z M300.356,113.73l-5.599,9.817
							l-9.616-8.446L300.356,113.73z M316.716,112.258l-5.267,8.788l-7.496-7.64L316.716,112.258z M318.073,121.736l-5.255,0.539
							l5.801-9.681l-0.738-0.443l4.699-0.423L318.073,121.736z M296.612,123.941l5.568-9.762l8.191,8.348L296.612,123.941z
							 M276.219,126.036l6.93-10.28l9.754,8.565L276.219,126.036z M255.02,128.216l7.093-10.589l9.748,8.858L255.02,128.216z
							 M239.536,129.808l-1.109-10.502l2.566-0.231l-0.152,0.161l10.053,9.404L239.536,129.808z"/>
					</g>
					<g>
						<path style="fill:#1D365C;" d="M239.187,127.171l-1.128,1.978l-9.948-8.738l10.255-0.924l-0.248-2.323l-12.43,1.119l-0.001,0
							L204,120.235l-0.057-0.05l-0.04,0.059l-26.69,2.404l1.641,15.54l16.091-1.653l0.183,0.17l0.137-0.203l21.431-2.203
							l0.281,0.255l0.206-0.305l21.353-2.195l0.012,0.011l0.008-0.013l1.14-0.117L239.187,127.171z M180.933,135.625l-1.147-10.864
							l2.655-0.239l-0.157,0.166l10.4,9.729L180.933,135.625z M194.799,133.837l-10.168-9.512l17.599-1.585L194.799,133.837z
							 M196.951,133.979l7.338-10.954l10.084,9.163L196.951,133.979z M216.633,131.718l-10.284-9.348l17.655-1.59L216.633,131.718z
							 M218.881,131.724l7.169-10.635l10.091,8.861L218.881,131.724z"/>
					</g>
				</g>
				<g>
					<polygon style="fill:#1D365C;" points="325.815,108.977 346.464,138.138 343.145,146.214 319.939,123.012 325.667,109.078 
											"/>
					<g>
						<polygon style="opacity:0.5;fill:#1D365C;" points="344.575,142.734 344.576,142.733 344.575,142.734 						"/>
					</g>
				</g>
				
					<rect x="344.868" y="143.12" transform="matrix(0.9636 -0.2675 0.2675 0.9636 -28.9231 98.2195)" style="fill:#1D365C;" width="2.382" height="24.307"/>
				<g>
					<g>
						<path style="fill:#1D365C;" d="M171.213,126.348c-2.079,3.839-0.651,8.635,3.185,10.714c3.84,2.08,8.637,0.654,10.715-3.185
							c2.079-3.838,0.654-8.635-3.186-10.715C178.09,121.084,173.291,122.51,171.213,126.348z"/>
						<path style="fill:#E1FAFD;" d="M172.332,126.954c-1.744,3.22-0.548,7.245,2.672,8.99c3.221,1.745,7.247,0.548,8.992-2.672
							c1.745-3.222,0.548-7.247-2.674-8.992C178.102,122.536,174.076,123.733,172.332,126.954z"/>
						<path style="fill:#1D365C;" d="M174.059,127.89c-1.227,2.266-0.386,5.097,1.881,6.325c2.267,1.229,5.1,0.387,6.328-1.878
							c1.228-2.267,0.385-5.1-1.882-6.328C178.118,124.78,175.287,125.623,174.059,127.89z"/>
					</g>
				</g>
				<g>
					<g>
						<path style="fill:#1D365C;" d="M316.237,113.666c-1.659,4.037,0.267,8.656,4.306,10.316c4.036,1.659,8.656-0.269,10.315-4.306
							c1.66-4.038-0.27-8.656-4.305-10.315C322.514,107.702,317.896,109.629,316.237,113.666z"/>
						<path style="fill:#E1FAFD;" d="M317.412,114.149c-1.393,3.388,0.226,7.264,3.614,8.657c3.388,1.393,7.262-0.225,8.655-3.615
							c1.393-3.387-0.223-7.262-3.612-8.654C322.681,109.145,318.805,110.762,317.412,114.149z"/>
						<path style="fill:#1D365C;" d="M319.231,114.897c-0.98,2.384,0.158,5.111,2.543,6.092c2.383,0.979,5.112-0.159,6.092-2.543
							c0.98-2.384-0.161-5.111-2.544-6.09C322.937,111.375,320.21,112.513,319.231,114.897z"/>
					</g>
				</g>
				<path style="fill:#1D365C;" d="M343.396,191.426l1.355-0.016c-0.001,0.025-0.004,0.05-0.003,0.076
					c0.043,3.694,3.084,6.662,6.778,6.618c3.695-0.044,6.664-3.085,6.62-6.778c-0.022-1.883-0.858-3.697-2.269-4.943
					c-0.7-0.617-1.526-1.087-2.415-1.368c-0.447-0.141-0.909-0.234-1.374-0.279c-0.311-0.029-0.887,0.105-1.139-0.135
					c-0.082-0.08-0.119-0.211-0.134-0.36c-0.012-0.051-0.02-0.107-0.022-0.167c-0.044-3.813-0.091-7.627-0.136-11.441
					c-0.01-0.873,1.345-0.89,1.354-0.016c0.044,3.588,0.086,7.177,0.129,10.766c4.077,0.349,7.309,3.752,7.36,7.926
					c0.054,4.44-3.518,8.097-7.957,8.15c-4.441,0.053-8.098-3.516-8.15-7.957C343.394,191.476,343.395,191.451,343.396,191.426z"/>
				<g>
					<g>
						<path style="fill:#1D365C;" d="M345.738,165.821c-1.485,2.741-0.468,6.168,2.274,7.653c2.742,1.485,6.169,0.465,7.654-2.275
							c1.485-2.742,0.466-6.169-2.276-7.654C350.648,162.06,347.222,163.079,345.738,165.821z"/>
						<path style="fill:#E1FAFD;" d="M347.365,166.703c-0.998,1.842-0.313,4.144,1.528,5.141c1.843,0.998,4.145,0.314,5.142-1.529
							c0.998-1.842,0.314-4.144-1.528-5.142C350.666,164.176,348.363,164.861,347.365,166.703z"/>
					</g>
				</g>
				<g>
					<path style="fill:#1D365C;" d="M174.657,119.758c-0.197-0.639-0.552-1.204-1.016-1.674l0.124-0.168l0.237-0.323l155.925-16.525
						l20.464,29.809l-1.491,1.023l-19.853-28.923l-154.059,16.329L174.657,119.758z"/>
				</g>
				<g>
					<g>
						<path style="fill:#1D365C;" d="M171.451,114.78c-1.208,2.231-0.379,5.017,1.85,6.225c2.231,1.208,5.017,0.38,6.225-1.851
							c1.208-2.229,0.379-5.016-1.851-6.224C175.446,111.723,172.66,112.552,171.451,114.78z"/>
						<path style="fill:#E1FAFD;" d="M172.102,115.133c-1.013,1.872-0.319,4.209,1.552,5.223c1.871,1.014,4.211,0.32,5.224-1.552
							c1.014-1.87,0.317-4.209-1.555-5.222C175.452,112.567,173.115,113.263,172.102,115.133z"/>
						<path style="fill:#1D365C;" d="M173.106,115.677c-0.712,1.317-0.224,2.962,1.092,3.675c1.317,0.713,2.963,0.225,3.677-1.093
							c0.712-1.316,0.223-2.962-1.094-3.676C175.464,113.871,173.819,114.361,173.106,115.677z"/>
					</g>
				</g>
				<g>
					<g>
						<path style="fill:#1D365C;" d="M324.925,101.043c-0.964,2.345,0.155,5.028,2.502,5.992c2.345,0.964,5.029-0.156,5.993-2.502
							c0.965-2.345-0.156-5.029-2.502-5.993C328.572,97.576,325.89,98.697,324.925,101.043z"/>
						<path style="fill:#E1FAFD;" d="M325.609,101.323c-0.81,1.969,0.131,4.22,2.098,5.03c1.967,0.808,4.22-0.131,5.029-2.099
							c0.81-1.968-0.131-4.22-2.098-5.029C328.668,98.415,326.417,99.355,325.609,101.323z"/>
						<path style="fill:#1D365C;" d="M326.665,101.758c-0.568,1.385,0.092,2.968,1.479,3.538c1.384,0.57,2.967-0.092,3.537-1.476
							c0.569-1.386-0.091-2.969-1.477-3.539C328.817,99.711,327.235,100.372,326.665,101.758z"/>
					</g>
				</g>
				<g>
					<g>
						<path style="fill:#1D365C;" d="M347.07,130.329c-0.585,1.423,0.093,3.049,1.517,3.635c1.423,0.585,3.05-0.094,3.636-1.517
							c0.584-1.422-0.095-3.051-1.517-3.635C349.281,128.225,347.654,128.906,347.07,130.329z"/>
						<path style="fill:#1D365C;" d="M347.483,130.499c-0.49,1.194,0.081,2.559,1.275,3.05c1.192,0.49,2.558-0.079,3.048-1.273
							c0.491-1.193-0.079-2.56-1.272-3.05C349.341,128.735,347.974,129.306,347.483,130.499z"/>
						<path style="fill:#E1FAFD;" d="M348.124,130.762c-0.344,0.84,0.055,1.801,0.896,2.147c0.839,0.344,1.801-0.056,2.147-0.896
							c0.345-0.84-0.056-1.802-0.896-2.148C349.43,129.52,348.471,129.922,348.124,130.762z"/>
					</g>
				</g>
			</g>
		</g>
		<g>
			<rect x="172.577" y="219.16" style="fill:#1D365C;" width="51.801" height="115.087"/>
			<g>
				<path style="fill:#F6F5F1;" d="M184.78,307.592c0,1.275-1.267,2.308-2.828,2.308l0,0c-1.564,0-2.829-1.034-2.829-2.308v-77.065
					c0-1.274,1.265-2.308,2.829-2.308l0,0c1.562,0,2.828,1.035,2.828,2.308V307.592z"/>
				<path style="fill:#F6F5F1;" d="M194.766,307.592c0,1.275-1.268,2.308-2.83,2.308l0,0c-1.563,0-2.829-1.034-2.829-2.308v-77.065
					c0-1.274,1.267-2.308,2.829-2.308l0,0c1.562,0,2.83,1.035,2.83,2.308V307.592z"/>
				<path style="fill:#F6F5F1;" d="M204.75,307.592c0,1.275-1.267,2.308-2.83,2.308l0,0c-1.562,0-2.829-1.034-2.829-2.308v-77.065
					c0-1.274,1.267-2.308,2.829-2.308l0,0c1.563,0,2.83,1.035,2.83,2.308V307.592z"/>
				<path style="fill:#F6F5F1;" d="M214.734,307.592c0,1.275-1.266,2.308-2.828,2.308l0,0c-1.563,0-2.83-1.034-2.83-2.308v-77.065
					c0-1.274,1.267-2.308,2.83-2.308l0,0c1.562,0,2.828,1.035,2.828,2.308V307.592z"/>
			</g>
		</g>
		<path style="fill:#1D365C;" d="M425.829,368.579C391.846,341.632,325.85,323.353,250,323.353s-141.846,18.279-175.829,45.226
			c47.123-17.691,108.592-28.394,175.829-28.394S378.706,350.888,425.829,368.579z"/>
	</g>
</g>
<g id="TEXTS">
	<g>
		<text transform="matrix(1 0 0 1 178.6304 370.9961)" style="fill:#1D365C; font-family:'Poppins-Black'; font-size:21.7175px;">CONSTRUCTION</text>
		<text transform="matrix(1 0 0 1 173.3208 391.8965)" style="fill:#E07019; font-family:'Poppins-Medium'; font-size:17.028px;">BUILD &amp; RENOVATION</text>
	</g>
</g>
</svg>
